<?xml version="1.0" standalone="no"?>
<!DOCTYPE svg PUBLIC "-//W3C//DTD SVG 20010904//EN"
 "http://www.w3.org/TR/2001/REC-SVG-20010904/DTD/svg10.dtd">
<svg version="1.0" xmlns="http://www.w3.org/2000/svg"
 width="500.000000pt" height="500.000000pt" viewBox="0 0 500.000000 500.000000"
 preserveAspectRatio="xMidYMid meet">
<metadata>
Created by potrace 1.14, written by Peter Selinger 2001-2017
</metadata>
<g transform="translate(0.000000,500.000000) scale(0.100000,-0.100000)"
fill="#000000" stroke="none">
<path d="M2753 4638 c-26 -13 -38 -37 -102 -205 -27 -70 -172 -447 -324 -838
-317 -819 -334 -863 -339 -890 -10 -49 50 -107 102 -98 43 7 68 31 88 86 11
29 75 195 143 368 67 173 132 341 144 374 13 33 67 173 120 310 53 138 130
336 170 440 40 105 87 225 104 268 17 43 31 93 31 113 0 65 -72 103 -137 72z"/>
<path d="M1629 4069 c-164 -129 -338 -265 -387 -304 -50 -38 -95 -80 -101 -93
-16 -33 -13 -74 7 -98 14 -17 158 -134 307 -249 17 -13 80 -63 140 -110 61
-48 125 -99 144 -113 18 -15 61 -49 95 -76 66 -52 104 -73 124 -70 6 1 19 2
27 3 9 0 27 12 40 26 29 28 33 79 10 113 -9 12 -160 135 -336 273 -176 138
-319 255 -317 259 3 9 51 47 398 320 129 101 241 190 249 198 7 7 15 32 18 55
5 56 -21 88 -80 94 -42 5 -42 5 -338 -228z"/>
<path d="M2869 4271 c-49 -50 -37 -103 39 -162 26 -19 174 -136 330 -258 l282
-222 -107 -86 c-121 -95 -104 -82 -348 -273 -99 -77 -190 -152 -202 -166 -56
-62 2 -160 87 -147 14 2 41 16 60 32 19 15 186 146 370 290 184 145 345 274
358 288 25 27 30 87 9 114 -7 9 -102 87 -212 173 -110 86 -207 162 -215 169
-8 7 -91 72 -183 145 -143 113 -173 132 -203 132 -26 0 -44 -8 -65 -29z"/>
<path d="M1550 1774 l0 -444 70 0 70 0 2 382 3 382 52 -150 c28 -82 81 -234
118 -339 37 -104 72 -208 79 -230 l12 -40 97 -3 c73 -2 97 0 97 10 0 7 21 71
46 143 25 71 68 195 96 275 27 80 53 152 57 160 5 8 18 50 31 93 13 42 25 75
28 73 2 -3 4 -174 5 -381 l0 -375 69 0 68 0 0 444 0 444 -117 -1 -118 -2 -28
-80 c-16 -44 -53 -150 -83 -235 -29 -85 -70 -200 -89 -255 -20 -55 -41 -117
-47 -139 -14 -48 -16 -44 -73 122 -37 109 -167 481 -197 564 l-10 27 -119 -1
-119 -1 0 -443z"/>
<path d="M2676 2212 c-2 -4 -3 -204 -3 -445 l0 -439 251 4 c288 4 324 12 414
93 198 178 178 583 -35 724 -85 57 -123 63 -385 66 -131 2 -240 0 -242 -3z
m453 -116 c84 -17 147 -70 177 -151 24 -63 27 -267 5 -330 -23 -68 -62 -113
-121 -142 -51 -26 -64 -28 -217 -31 l-163 -4 0 330 c0 241 3 331 12 334 18 6
269 1 307 -6z"/>
</g>
</svg>
